<svg width="444" height="442" viewBox="0 0 444 442" fill="none" xmlns="http://www.w3.org/2000/svg">
<g clip-path="url(#clip0_1_2)">
<ellipse cx="16.7485" cy="14.1636" rx="16.7485" ry="14.1636" transform="matrix(-0.130003 -0.991514 0.994436 -0.105346 2.28635 254.016)" fill="#A6D655"/>
<rect width="33.4971" height="28.3273" transform="matrix(-0.130003 -0.991514 0.994436 -0.105346 16.798 252.479)" fill="#A6D655"/>
<ellipse cx="13.1958" cy="7.33717" rx="13.1958" ry="7.33717" transform="matrix(-0.130003 -0.991514 0.994436 -0.105346 19.8224 228.688)" fill="#A6D655"/>
<rect width="26.3916" height="14.6743" transform="matrix(-0.130003 -0.991514 0.994436 -0.105346 27.3399 227.892)" fill="#A6D655"/>
<ellipse cx="16.7485" cy="11.0057" rx="16.7485" ry="11.0057" transform="matrix(-0.130003 -0.991514 0.994436 -0.105346 14.0458 270.117)" fill="#A6D655"/>
<rect width="33.4971" height="22.0115" transform="matrix(-0.130003 -0.991514 0.994436 -0.105346 25.322 268.923)" fill="#A6D655"/>
<ellipse cx="16.817" cy="15.4562" rx="16.817" ry="15.4562" transform="matrix(0.298734 0.954336 0.960631 -0.277826 5.95358 286.561)" fill="#A6D655"/>
<rect width="33.634" height="30.9124" transform="matrix(0.298734 0.954336 0.960631 -0.277826 21.2512 282.137)" fill="#A6D655"/>
<ellipse cx="13.2498" cy="11.428" rx="13.2498" ry="11.428" transform="matrix(0.298734 0.954336 0.960631 -0.277826 24.6826 305.541)" fill="#A6D655"/>
<rect width="26.4995" height="22.856" transform="matrix(0.298734 0.954336 0.960631 -0.277826 35.9934 302.27)" fill="#A6D655"/>
<ellipse cx="16.817" cy="10.9602" rx="16.817" ry="10.9602" transform="matrix(0.298734 0.954336 0.960631 -0.277826 13.8655 266.241)" fill="#A6D655"/>
<rect width="33.634" height="21.9204" transform="matrix(0.298734 0.954336 0.960631 -0.277826 24.7132 263.103)" fill="#A6D655"/>
<ellipse cx="16.8845" cy="13.2817" rx="16.8845" ry="13.2817" transform="matrix(-0.896167 -0.443718 0.430838 -0.902429 118.03 417.386)" fill="#A6D655"/>
<rect width="33.769" height="26.5634" transform="matrix(-0.896167 -0.443718 0.430838 -0.902429 123.925 405.037)" fill="#A6D655"/>
<ellipse cx="15.9297" cy="11.0162" rx="15.9297" ry="11.0162" transform="matrix(-0.896167 -0.443718 0.430838 -0.902429 99.8954 400.747)" fill="#A6D655"/>
<rect width="31.8593" height="22.0324" transform="matrix(-0.896167 -0.443718 0.430838 -0.902429 104.785 390.505)" fill="#A6D655"/>
<ellipse cx="16.8845" cy="10.9149" rx="16.8845" ry="10.9149" transform="matrix(-0.896167 -0.443718 0.430838 -0.902429 136.71 418.633)" fill="#A6D655"/>
<rect width="33.769" height="21.8298" transform="matrix(-0.896167 -0.443718 0.430838 -0.902429 141.555 408.484)" fill="#A6D655"/>
<ellipse cx="15.3064" cy="10.7133" rx="15.3064" ry="10.7133" transform="matrix(-0.977119 -0.212693 0.19065 -0.981658 183.294 442.277)" fill="#A6D655"/>
<rect width="30.6127" height="21.4266" transform="matrix(-0.977119 -0.212693 0.19065 -0.981658 185.399 431.442)" fill="#A6D655"/>
<ellipse cx="15.6275" cy="5.88744" rx="15.6275" ry="5.88744" transform="matrix(-0.977119 -0.212693 0.19065 -0.981658 167.916 423.968)" fill="#A6D655"/>
<rect width="31.255" height="11.7749" transform="matrix(-0.977119 -0.212693 0.19065 -0.981658 169.073 418.013)" fill="#A6D655"/>
<ellipse cx="14.9654" cy="8.83116" rx="14.9654" ry="8.83116" transform="matrix(-0.977119 -0.212693 0.19065 -0.981658 213.2 442.952)" fill="#A6D655"/>
<rect width="29.9309" height="17.6623" transform="matrix(-0.977119 -0.212693 0.19065 -0.981658 214.935 434.02)" fill="#A6D655"/>
<ellipse cx="59.7669" cy="351.758" rx="16.9213" ry="12.87" transform="rotate(-136.76 59.7669 351.758)" fill="#A6D655"/>
<rect x="72.3611" y="363.066" width="33.8427" height="25.74" transform="rotate(-136.76 72.3611 363.066)" fill="#A6D655"/>
<ellipse cx="53.0014" cy="329.761" rx="13.332" ry="7.26" transform="rotate(-136.76 53.0014 329.761)" fill="#A6D655"/>
<rect x="62.8643" y="338.734" width="26.6639" height="14.52" transform="rotate(-136.76 62.8643 338.734)" fill="#A6D655"/>
<ellipse cx="75.2214" cy="360.773" rx="16.9213" ry="10.89" transform="rotate(-136.76 75.2214 360.773)" fill="#A6D655"/>
<rect x="87.7745" y="372.124" width="33.8427" height="21.78" transform="rotate(-136.76 87.7745 372.124)" fill="#A6D655"/>
<ellipse cx="16.0656" cy="13.4088" rx="16.0656" ry="13.4088" transform="matrix(0.956305 -0.292371 0.195953 0.980613 174.231 5.73029)" fill="#A6D655"/>
<rect width="32.1312" height="26.8177" transform="matrix(0.956305 -0.292371 0.195953 0.980613 176.938 19.2776)" fill="#A6D655"/>
<ellipse cx="12.6577" cy="6.94615" rx="12.6577" ry="6.94615" transform="matrix(0.956305 -0.292371 0.195953 0.980613 199.484 18.387)" fill="#A6D655"/>
<rect width="25.3155" height="13.8923" transform="matrix(0.956305 -0.292371 0.195953 0.980613 200.887 25.4049)" fill="#A6D655"/>
<ellipse cx="16.0656" cy="10.4192" rx="16.0656" ry="10.4192" transform="matrix(0.956305 -0.292371 0.195953 0.980613 160.177 19.4535)" fill="#A6D655"/>
<rect width="32.1312" height="20.8385" transform="matrix(0.956305 -0.292371 0.195953 0.980613 162.281 29.9803)" fill="#A6D655"/>
<ellipse cx="16.3233" cy="14.4452" rx="16.3233" ry="14.4452" transform="matrix(-0.894 0.448067 0.368188 0.929751 144.069 14.3656)" fill="#A6D655"/>
<rect width="32.6466" height="28.8904" transform="matrix(-0.894 0.448067 0.368188 0.929751 149.549 28.203)" fill="#A6D655"/>
<ellipse cx="12.8608" cy="10.6805" rx="12.8608" ry="10.6805" transform="matrix(-0.894 0.448067 0.368188 0.929751 127.927 35.1676)" fill="#A6D655"/>
<rect width="25.7215" height="21.3609" transform="matrix(-0.894 0.448067 0.368188 0.929751 131.979 45.3987)" fill="#A6D655"/>
<ellipse cx="16.3233" cy="10.2433" rx="16.3233" ry="10.2433" transform="matrix(-0.894 0.448067 0.368188 0.929751 163.792 18.6687)" fill="#A6D655"/>
<rect width="32.6466" height="20.4865" transform="matrix(-0.894 0.448067 0.368188 0.929751 167.678 28.481)" fill="#A6D655"/>
<ellipse cx="16.5744" cy="12.2488" rx="16.5744" ry="12.2488" transform="matrix(0.343641 -0.939101 0.957297 0.289106 31.3244 141.576)" fill="#A6D655"/>
<rect width="33.1489" height="24.4976" transform="matrix(0.343641 -0.939101 0.957297 0.289106 43.4054 145.224)" fill="#A6D655"/>
<ellipse cx="15.6371" cy="10.1595" rx="15.6371" ry="10.1595" transform="matrix(0.343641 -0.939101 0.957297 0.289106 45.3246 121.709)" fill="#A6D655"/>
<rect width="31.2743" height="20.319" transform="matrix(0.343641 -0.939101 0.957297 0.289106 55.3449 124.736)" fill="#A6D655"/>
<ellipse cx="16.5744" cy="10.0661" rx="16.5744" ry="10.0661" transform="matrix(0.343641 -0.939101 0.957297 0.289106 31.788 159.525)" fill="#A6D655"/>
<rect width="33.1489" height="20.1321" transform="matrix(0.343641 -0.939101 0.957297 0.289106 41.7162 162.523)" fill="#A6D655"/>
<ellipse cx="16.2847" cy="12.4587" rx="16.2847" ry="12.4587" transform="matrix(0.117531 -0.993069 0.999619 0.027585 6.35294 207.396)" fill="#A6D655"/>
<rect width="32.5695" height="24.9175" transform="matrix(0.117531 -0.993069 0.999619 0.027585 19.1843 207.75)" fill="#A6D655"/>
<ellipse cx="12.8304" cy="6.84664" rx="12.8304" ry="6.84664" transform="matrix(0.117531 -0.993069 0.999619 0.027585 26.0208 185.322)" fill="#A6D655"/>
<rect width="25.6608" height="13.6933" transform="matrix(0.117531 -0.993069 0.999619 0.027585 33.0722 185.517)" fill="#A6D655"/>
<ellipse cx="16.2847" cy="10.27" rx="16.2847" ry="10.27" transform="matrix(0.117531 -0.993069 0.999619 0.027585 11.0111 224.241)" fill="#A6D655"/>
<rect width="32.5695" height="20.5399" transform="matrix(0.117531 -0.993069 0.999619 0.027585 21.5883 224.532)" fill="#A6D655"/>
<ellipse cx="87.7044" cy="75.8223" rx="16.7104" ry="11.7799" transform="rotate(-54.1751 87.7044 75.8223)" fill="#A6D655"/>
<rect x="78.2131" y="89.5802" width="33.4208" height="23.5599" transform="rotate(-54.1751 78.2131 89.5802)" fill="#A6D655"/>
<ellipse cx="107.716" cy="65.9119" rx="13.1658" ry="6.64509" transform="rotate(-54.1751 107.716 65.9119)" fill="#A6D655"/>
<rect x="100.174" y="76.7047" width="26.3316" height="13.2902" transform="rotate(-54.1751 100.174 76.7047)" fill="#A6D655"/>
<ellipse cx="80.6107" cy="91.9355" rx="16.7104" ry="9.96764" transform="rotate(-54.1751 80.6107 91.9355)" fill="#A6D655"/>
<rect x="71.0748" y="105.661" width="33.4208" height="19.9353" transform="rotate(-54.1751 71.0748 105.661)" fill="#A6D655"/>
<ellipse cx="16.0656" cy="13.4088" rx="16.0656" ry="13.4088" transform="matrix(0.414522 0.910039 -0.946707 0.322095 431.132 145.181)" fill="#A6D655"/>
<rect width="32.1312" height="26.8177" transform="matrix(0.414522 0.910039 -0.946707 0.322095 418.053 149.631)" fill="#A6D655"/>
<ellipse cx="12.6577" cy="6.94615" rx="12.6577" ry="6.94615" transform="matrix(0.414522 0.910039 -0.946707 0.322095 421.874 171.869)" fill="#A6D655"/>
<rect width="25.3155" height="13.8923" transform="matrix(0.414522 0.910039 -0.946707 0.322095 415.099 174.174)" fill="#A6D655"/>
<ellipse cx="16.0656" cy="10.4192" rx="16.0656" ry="10.4192" transform="matrix(0.414522 0.910039 -0.946707 0.322095 415.694 133.036)" fill="#A6D655"/>
<rect width="32.1312" height="20.8385" transform="matrix(0.414522 0.910039 -0.946707 0.322095 405.531 136.493)" fill="#A6D655"/>
<ellipse cx="16.3233" cy="14.4452" rx="16.3233" ry="14.4452" transform="matrix(-0.56077 -0.827972 -0.87383 0.486232 418.639 116.402)" fill="#A6D655"/>
<rect width="32.6466" height="28.8904" transform="matrix(-0.56077 -0.827972 -0.87383 0.486232 405.633 123.638)" fill="#A6D655"/>
<ellipse cx="12.8608" cy="10.6805" rx="12.8608" ry="10.6805" transform="matrix(-0.56077 -0.827972 -0.87383 0.486232 395.91 103.109)" fill="#A6D655"/>
<rect width="25.7215" height="21.3609" transform="matrix(-0.56077 -0.827972 -0.87383 0.486232 386.294 108.46)" fill="#A6D655"/>
<ellipse cx="16.3233" cy="10.2433" rx="16.3233" ry="10.2433" transform="matrix(-0.56077 -0.827972 -0.87383 0.486232 416.943 136.518)" fill="#A6D655"/>
<rect width="32.6466" height="20.4865" transform="matrix(-0.56077 -0.827972 -0.87383 0.486232 407.721 141.649)" fill="#A6D655"/>
<ellipse cx="16.5744" cy="12.2488" rx="16.5744" ry="12.2488" transform="matrix(0.97588 0.218306 -0.161865 0.986813 277.818 21.1998)" fill="#A6D655"/>
<rect width="33.1489" height="24.4976" transform="matrix(0.97588 0.218306 -0.161865 0.986813 275.776 33.6534)" fill="#A6D655"/>
<ellipse cx="15.6371" cy="10.1595" rx="15.6371" ry="10.1595" transform="matrix(0.97588 0.218306 -0.161865 0.986813 299.34 32.4912)" fill="#A6D655"/>
<rect width="31.2743" height="20.319" transform="matrix(0.97588 0.218306 -0.161865 0.986813 297.646 42.8205)" fill="#A6D655"/>
<ellipse cx="16.5744" cy="10.0661" rx="16.5744" ry="10.0661" transform="matrix(0.97588 0.218306 -0.161865 0.986813 260.083 23.999)" fill="#A6D655"/>
<rect width="33.1489" height="20.1321" transform="matrix(0.97588 0.218306 -0.161865 0.986813 258.404 34.2333)" fill="#A6D655"/>
<ellipse cx="16.2847" cy="12.4587" rx="16.2847" ry="12.4587" transform="matrix(0.999917 -0.0129091 0.102942 0.994687 209.305 5.02043)" fill="#A6D655"/>
<rect width="32.5695" height="24.9175" transform="matrix(0.999917 -0.0129091 0.102942 0.994687 210.626 17.7885)" fill="#A6D655"/>
<ellipse cx="12.8304" cy="6.84664" rx="12.8304" ry="6.84664" transform="matrix(0.999917 -0.0129091 0.102942 0.994687 233.754 21.6434)" fill="#A6D655"/>
<rect width="25.6608" height="13.6933" transform="matrix(0.999917 -0.0129091 0.102942 0.994687 234.48 28.66)" fill="#A6D655"/>
<ellipse cx="16.2847" cy="10.27" rx="16.2847" ry="10.27" transform="matrix(0.999917 -0.0129091 0.102942 0.994687 193.211 11.8345)" fill="#A6D655"/>
<rect width="32.5695" height="20.5399" transform="matrix(0.999917 -0.0129091 0.102942 0.994687 194.3 22.3594)" fill="#A6D655"/>
<ellipse cx="350.359" cy="68.5285" rx="16.7104" ry="11.7799" transform="rotate(28.3356 350.359 68.5285)" fill="#A6D655"/>
<rect x="335.482" y="60.9114" width="33.4208" height="23.5599" transform="rotate(28.3356 335.482 60.9114)" fill="#A6D655"/>
<ellipse cx="362.794" cy="87.0781" rx="13.1658" ry="6.64509" transform="rotate(28.3356 362.794 87.0781)" fill="#A6D655"/>
<rect x="351.11" y="81.0064" width="26.3316" height="13.2902" transform="rotate(28.3356 351.11 81.0064)" fill="#A6D655"/>
<ellipse cx="333.459" cy="63.5955" rx="16.7104" ry="9.96764" transform="rotate(28.3356 333.459 63.5955)" fill="#A6D655"/>
<rect x="318.608" y="55.93" width="33.4208" height="19.9353" transform="rotate(28.3356 318.608 55.93)" fill="#A6D655"/>
<ellipse cx="16.0656" cy="13.4088" rx="16.0656" ry="13.4088" transform="matrix(-0.986946 0.161054 -0.0622426 -0.998061 311.616 429.22)" fill="#A6D655"/>
<rect width="32.1312" height="26.8177" transform="matrix(-0.986946 0.161054 -0.0622426 -0.998061 310.756 415.432)" fill="#A6D655"/>
<ellipse cx="12.6577" cy="6.94615" rx="12.6577" ry="6.94615" transform="matrix(-0.986946 0.161054 -0.0622426 -0.998061 288.295 413.281)" fill="#A6D655"/>
<rect width="25.3155" height="13.8923" transform="matrix(-0.986946 0.161054 -0.0622426 -0.998061 287.85 406.138)" fill="#A6D655"/>
<ellipse cx="16.0656" cy="10.4192" rx="16.0656" ry="10.4192" transform="matrix(-0.986946 0.161054 -0.0622426 -0.998061 327.389 417.512)" fill="#A6D655"/>
<rect width="32.1312" height="20.8385" transform="matrix(-0.986946 0.161054 -0.0622426 -0.998061 326.72 406.798)" fill="#A6D655"/>
<ellipse cx="16.3233" cy="14.4452" rx="16.3233" ry="14.4452" transform="matrix(0.77446 -0.632623 -0.562489 -0.826805 348.388 408.151)" fill="#A6D655"/>
<rect width="32.6466" height="28.8904" transform="matrix(0.77446 -0.632623 -0.562489 -0.826805 340.017 395.846)" fill="#A6D655"/>
<ellipse cx="12.8608" cy="10.6805" rx="12.8608" ry="10.6805" transform="matrix(0.77446 -0.632623 -0.562489 -0.826805 359.593 384.324)" fill="#A6D655"/>
<rect width="25.7215" height="21.3609" transform="matrix(0.77446 -0.632623 -0.562489 -0.826805 353.404 375.226)" fill="#A6D655"/>
<ellipse cx="16.3233" cy="10.2433" rx="16.3233" ry="10.2433" transform="matrix(0.77446 -0.632623 -0.562489 -0.826805 328.201 408.263)" fill="#A6D655"/>
<rect width="32.6466" height="20.4865" transform="matrix(0.77446 -0.632623 -0.562489 -0.826805 322.265 399.537)" fill="#A6D655"/>
<ellipse cx="16.5744" cy="12.2488" rx="16.5744" ry="12.2488" transform="matrix(-0.130088 0.991502 -0.99734 -0.0728946 430.605 259.375)" fill="#A6D655"/>
<rect width="33.1489" height="24.4976" transform="matrix(-0.130088 0.991502 -0.99734 -0.0728946 418.019 258.455)" fill="#A6D655"/>
<ellipse cx="15.6371" cy="10.1595" rx="15.6371" ry="10.1595" transform="matrix(-0.130088 0.991502 -0.99734 -0.0728946 421.285 281.821)" fill="#A6D655"/>
<rect width="31.2743" height="20.319" transform="matrix(-0.130088 0.991502 -0.99734 -0.0728946 410.846 281.058)" fill="#A6D655"/>
<ellipse cx="16.5744" cy="10.0661" rx="16.5744" ry="10.0661" transform="matrix(-0.130088 0.991502 -0.99734 -0.0728946 426.23 241.962)" fill="#A6D655"/>
<rect width="33.1489" height="20.1321" transform="matrix(-0.130088 0.991502 -0.99734 -0.0728946 415.886 241.206)" fill="#A6D655"/>
<ellipse cx="16.2847" cy="12.4587" rx="16.2847" ry="12.4587" transform="matrix(0.10235 0.994748 -0.981482 0.191554 440.587 189.689)" fill="#A6D655"/>
<rect width="32.5695" height="24.9175" transform="matrix(0.10235 0.994748 -0.981482 0.191554 427.989 192.148)" fill="#A6D655"/>
<ellipse cx="12.8304" cy="6.84664" rx="12.8304" ry="6.84664" transform="matrix(0.10235 0.994748 -0.981482 0.191554 426.219 215.527)" fill="#A6D655"/>
<rect width="25.6608" height="13.6933" transform="matrix(0.10235 0.994748 -0.981482 0.191554 419.296 216.879)" fill="#A6D655"/>
<ellipse cx="16.2847" cy="10.27" rx="16.2847" ry="10.27" transform="matrix(0.10235 0.994748 -0.981482 0.191554 432.36 174.269)" fill="#A6D655"/>
<rect width="32.5695" height="20.5399" transform="matrix(0.10235 0.994748 -0.981482 0.191554 421.975 176.296)" fill="#A6D655"/>
<ellipse cx="389.959" cy="335.861" rx="16.7104" ry="11.7799" transform="rotate(113.201 389.959 335.861)" fill="#A6D655"/>
<rect x="396.214" y="320.362" width="33.4208" height="23.5599" transform="rotate(113.201 396.214 320.362)" fill="#A6D655"/>
<ellipse cx="372.597" cy="349.906" rx="13.1658" ry="6.64509" transform="rotate(113.201 372.597 349.906)" fill="#A6D655"/>
<rect x="377.598" y="337.726" width="26.3316" height="13.2902" transform="rotate(113.201 377.598 337.726)" fill="#A6D655"/>
<ellipse cx="393.359" cy="318.587" rx="16.7104" ry="9.96764" transform="rotate(113.201 393.359 318.587)" fill="#A6D655"/>
<rect x="399.665" y="303.109" width="33.4208" height="19.9353" transform="rotate(113.201 399.665 303.109)" fill="#A6D655"/>
<ellipse cx="238.51" cy="430.35" rx="16.7104" ry="11.7799" transform="rotate(170.186 238.51 430.35)" fill="#A6D655"/>
<rect x="254.915" y="427.15" width="33.4208" height="23.5599" transform="rotate(170.186 254.915 427.15)" fill="#A6D655"/>
<ellipse cx="217.273" cy="423.443" rx="13.1658" ry="6.64509" transform="rotate(170.186 217.273 423.443)" fill="#A6D655"/>
<rect x="230.212" y="421.001" width="26.3316" height="13.2902" transform="rotate(170.186 230.212 421.001)" fill="#A6D655"/>
<ellipse cx="254.847" cy="423.79" rx="16.7104" ry="9.96764" transform="rotate(170.186 254.847 423.79)" fill="#A6D655"/>
<rect x="271.261" y="420.644" width="33.4208" height="19.9353" transform="rotate(170.186 271.261 420.644)" fill="#A6D655"/>
<circle cx="221" cy="227" r="190" fill="#fff"/>
</g>
<defs>
<clipPath id="clip0_1_2">
<rect width="444" height="442" fill="white"/>
</clipPath>
</defs>
</svg>
